<?xml version="1.0" encoding="UTF-8" standalone="no"?><!DOCTYPE svg PUBLIC "-//W3C//DTD SVG 1.1//EN" "http://www.w3.org/Graphics/SVG/1.1/DTD/svg11.dtd"><svg width="100%" height="100%" viewBox="0 0 33 33" version="1.1" xmlns="http://www.w3.org/2000/svg" xmlns:xlink="http://www.w3.org/1999/xlink" xml:space="preserve" xmlns:serif="http://www.serif.com/" style="fill-rule:evenodd;clip-rule:evenodd;stroke-linejoin:round;stroke-miterlimit:2;"><g><rect x="0.086" y="0.905" width="32" height="32" style="fill:#fff;"/><path d="M8.088,6.704l4.05,0l0,10.865c0,1.724 0.05,2.841 0.151,3.352c0.173,0.821 0.586,1.48 1.238,1.977c0.652,0.497 1.544,0.746 2.675,0.746c1.149,-0 2.016,-0.235 2.6,-0.705c0.583,-0.47 0.935,-1.047 1.053,-1.731c0.119,-0.684 0.178,-1.82 0.178,-3.407l0,-11.097l4.05,0l0,10.536c0,2.408 -0.109,4.11 -0.328,5.104c-0.219,0.994 -0.623,1.834 -1.211,2.518c-0.588,0.684 -1.375,1.229 -2.36,1.635c-0.986,0.406 -2.272,0.609 -3.859,0.609c-1.916,-0 -3.368,-0.221 -4.358,-0.664c-0.99,-0.442 -1.772,-1.017 -2.347,-1.724c-0.574,-0.707 -0.953,-1.448 -1.135,-2.223c-0.265,-1.15 -0.397,-2.847 -0.397,-5.091l-0,-10.7Z" style="fill-rule:nonzero;"/></g></svg>